<svg width="169" height="25" viewBox="0 0 169 25" fill="none" xmlns="http://www.w3.org/2000/svg">
<path d="M48.4164 8.40731C48.3854 8.02725 48.2711 7.65867 48.0818 7.32765C47.8925 6.99663 47.6328 6.71127 47.321 6.49176C46.6028 5.99686 45.7437 5.74764 44.8721 5.78133C44.2462 5.76871 43.6245 5.88687 43.0468 6.12824C42.558 6.33059 42.1319 6.65956 41.8123 7.08128C41.5169 7.48102 41.3605 7.96652 41.367 8.46355C41.3518 8.92654 41.5083 9.37882 41.8065 9.73334C42.1171 10.0867 42.4986 10.3707 42.9262 10.567C43.378 10.7821 43.8478 10.957 44.3302 11.0898L45.8988 11.5213C46.3821 11.6545 46.8567 11.8173 47.3199 12.0088C47.7845 12.1985 48.2227 12.4472 48.6237 12.7487C49.0144 13.042 49.3389 13.4143 49.5763 13.8413C49.8275 14.3163 49.9518 14.8482 49.937 15.3854C49.9461 16.1238 49.7307 16.8475 49.3193 17.4607C48.875 18.1025 48.2605 18.6076 47.5449 18.9194C46.6719 19.2978 45.7267 19.4811 44.7755 19.4563C43.8737 19.4773 42.9773 19.312 42.1424 18.9705C41.4462 18.6836 40.8393 18.2158 40.3846 17.6156C39.9551 17.0307 39.7042 16.334 39.6621 15.6096H41.0569C41.0901 16.141 41.2939 16.6476 41.638 17.054C41.9955 17.4602 42.4509 17.7682 42.9609 17.9487C43.5427 18.1586 44.1576 18.2618 44.776 18.2535C45.454 18.2655 46.1276 18.1424 46.7575 17.8912C47.2943 17.6809 47.7655 17.3317 48.1229 16.8794C48.4546 16.4454 48.6297 15.9121 48.6199 15.366C48.6352 14.9223 48.4967 14.487 48.2277 14.1338C47.9319 13.7765 47.5585 13.4914 47.1359 13.3001C46.6128 13.054 46.0693 12.8539 45.5115 12.7021L43.7297 12.196C42.7296 11.9473 41.8009 11.4697 41.017 10.8007C40.701 10.5125 40.451 10.1595 40.284 9.76571C40.1171 9.37195 40.0373 8.94677 40.0499 8.51928C40.0372 7.78648 40.2632 7.06943 40.6939 6.47642C41.1439 5.87102 41.7456 5.39487 42.4382 5.09594C43.2174 4.75521 44.0607 4.58574 44.911 4.59897C45.7549 4.58273 46.5921 4.75176 47.3637 5.09415C48.0359 5.39214 48.6197 5.85888 49.0583 6.44907C49.475 7.01916 49.7103 7.70155 49.7335 8.40731H48.4164ZM58.6693 19.2121H57.2459L62.6589 4.80579H64.1115L69.5245 19.2121H68.1008L63.4335 6.51273H63.3366L58.6693 19.2121ZM59.6957 13.6879H67.0739V14.8698H59.6957V13.6879ZM77.5113 19.2121V4.80579H78.8663V18.0303H85.9545V19.2121H77.5113ZM106.067 12.0088C106.1 13.3605 105.817 14.7012 105.242 15.9248C104.739 16.9789 103.951 17.8706 102.966 18.4981C101.967 19.1145 100.812 19.4307 99.6376 19.409C98.4628 19.4308 97.3064 19.1142 96.3066 18.4968C95.3218 17.869 94.5333 16.9768 94.0314 15.9222C93.4569 14.6993 93.1748 13.3596 93.2072 12.0088C93.1745 10.6575 93.4571 9.3172 94.0326 8.09414C94.5353 7.04034 95.3236 6.14876 96.3079 5.52082C97.3069 4.90367 98.4625 4.58702 99.6366 4.60868C100.811 4.58697 101.966 4.90314 102.965 5.51955C103.95 6.14708 104.738 7.03877 105.241 8.09287C105.816 9.31647 106.099 10.6573 106.066 12.0091L106.067 12.0088ZM104.75 12.0088C104.781 10.8669 104.552 9.73289 104.082 8.6921C103.686 7.82933 103.053 7.09669 102.257 6.57945C101.473 6.08705 100.563 5.83255 99.6369 5.84677C98.712 5.83276 97.8029 6.0864 97.0188 6.57715C96.2226 7.0933 95.5895 7.8252 95.1935 8.6875C94.7217 9.72961 94.4929 10.8653 94.5242 12.0088C94.4932 13.1489 94.7204 14.2812 95.1889 15.321C95.5833 16.1844 96.2148 16.9181 97.0099 17.4367C97.7953 17.9309 98.7075 18.1863 99.6353 18.1717C100.562 18.1858 101.472 17.9313 102.257 17.439C103.054 16.922 103.687 16.1893 104.083 15.3263C104.554 14.2855 104.781 13.1511 104.749 12.0091L104.75 12.0088ZM126.371 4.80553V19.2121H125.054L116.26 7.15056H116.144V19.2121H114.789V4.80579H116.107L124.919 16.886H125.035V4.80579L126.371 4.80553Z" fill="black"/>
<path d="M135.693 19.2447V4.80619H137.048V11.4238H145.493V4.80619H146.848V19.2447H145.493V12.6082H137.049V19.2447H135.693ZM161.808 14.7326H163.319L165.226 17.1766L165.546 17.5897L167.88 20.5979H166.369L164.656 18.3794L164.354 17.9852L161.808 14.7326ZM168.431 12.0253C168.464 13.3798 168.182 14.7232 167.606 15.9497C167.104 17.0057 166.316 17.8994 165.331 18.5289C164.332 19.1468 163.176 19.4638 162.002 19.4421C160.826 19.4639 159.67 19.1465 158.67 18.5279C157.685 17.8981 156.897 17.004 156.395 15.9477C155.821 14.7217 155.539 13.3791 155.571 12.0256C155.538 10.6715 155.821 9.32833 156.396 8.10222C156.899 7.04652 157.687 6.15291 158.672 5.52302C159.67 4.90466 160.826 4.58726 162 4.60883C163.175 4.58715 164.33 4.90408 165.329 5.52174C166.314 6.15127 167.103 7.04498 167.604 8.10094C168.181 9.32732 168.464 10.6708 168.431 12.0253ZM167.114 12.0253C167.145 10.8813 166.917 9.74512 166.446 8.70196C166.051 7.83769 165.418 7.10339 164.622 6.58445C163.838 6.091 162.928 5.83585 162.002 5.84999C161.076 5.83605 160.167 6.09035 159.383 6.58215C158.587 7.09983 157.954 7.83333 157.558 8.6971C157.086 9.74182 156.857 10.8799 156.889 12.0259C156.858 13.1683 157.085 14.303 157.554 15.3454C157.948 16.2102 158.58 16.9453 159.375 17.4652C160.16 17.9605 161.073 18.2165 162.001 18.202C162.928 18.216 163.839 17.9607 164.623 17.467C165.42 16.9484 166.053 16.214 166.449 15.3495C166.919 14.3061 167.147 13.1695 167.114 12.0253Z" fill="#00B9FF"/>
<circle cx="12.4355" cy="12.5979" r="12" fill="#2B2A2A"/>
<path d="M5.50586 15.8148V8.82168H6.16209V12.0268H10.2522V8.82168H10.9084V15.8148H10.2522V12.6005H6.16246V15.8148H5.50586ZM16.154 13.6294H16.8857L17.8096 14.8131L17.9644 15.0132L19.0948 16.4701H18.363L17.5334 15.3957L17.3874 15.2047L16.154 13.6294ZM19.3621 12.3182C19.3779 12.9742 19.241 13.6248 18.9623 14.2189C18.7193 14.7303 18.3374 15.1632 17.8603 15.4681C17.3764 15.7673 16.8166 15.9209 16.2478 15.9104C15.6786 15.9209 15.1185 15.7672 14.6345 15.4676C14.1573 15.1626 13.7754 14.7295 13.5325 14.2179C13.2542 13.6241 13.1176 12.9739 13.1333 12.3183C13.1175 11.6625 13.2543 11.0119 13.5331 10.4181C13.7763 9.90675 14.1581 9.47394 14.6351 9.16886C15.1188 8.86937 15.6785 8.71564 16.2473 8.72609C16.816 8.71559 17.3757 8.86909 17.8595 9.16824C18.3367 9.47315 18.7185 9.906 18.9615 10.4174C19.2405 11.0114 19.3776 11.6621 19.3621 12.3182ZM18.7242 12.3182C18.7392 11.7641 18.6285 11.2138 18.4005 10.7085C18.209 10.2899 17.9027 9.93429 17.5171 9.68295C17.1374 9.44396 16.6964 9.32038 16.2478 9.32723C15.7998 9.32048 15.3593 9.44364 14.9798 9.68184C14.594 9.93257 14.2874 10.2878 14.0957 10.7062C13.8672 11.2122 13.7564 11.7634 13.7716 12.3184C13.7565 12.8717 13.8666 13.4213 14.0935 13.9262C14.2845 14.345 14.5905 14.7011 14.9758 14.9529C15.3561 15.1928 15.7979 15.3168 16.2474 15.3097C16.6964 15.3165 17.1377 15.1929 17.5177 14.9537C17.9036 14.7026 18.2102 14.3469 18.4017 13.9282C18.6297 13.4228 18.74 12.8723 18.7242 12.3182Z" fill="#00B9FF"/>
</svg>
